#!OML:ASF F:\VICON\USERDATA\INSTALL\rory3\rory3.ASF
:FULLY-SPECIFIED
:DEGREES
368
root 4.81604 16.4498 2.50797 9.61277 -13.7176 -1.68268
lowerback 3.93461 0.103354 0.197803
upperback 0.293081 0.130267 -0.759401
thorax -1.90239 0.0601772 -0.897202
lowerneck -12.1844 0.220496 -1.21163
upperneck 39.8662 0.675043 -0.540003
head 16.3169 -0.0710507 0.0671508
rclavicle -4.27387e-015 -1.35174e-014
rhumerus -13.8899 31.5331 -57.4153
rradius 103.165
rwrist -28.4538
rhand -5.90726 -39.1626
rfingers 7.12502
rthumb 19.9215 -68.1616
lclavicle -4.27387e-015 -1.35174e-014
lhumerus -3.28862 -26.1552 54.207
lradius 92.1728
lwrist 53.9249
lhand -21.7677 -27.053
lfingers 7.12502
lthumb 4.63305 2.87636
rfemur -58.3114 -0.616818 17.4512
rtibia 33.8576
rfoot 37.782 -0.328203
rtoes 5.22929
lfemur -33.4685 3.0104 -29.4311
ltibia 48.4716
lfoot -22.7524 7.20412
ltoes 12.1365
369
root 4.81443 16.4513 2.50326 9.66392 -13.7214 -1.68449
lowerback 3.97659 0.100032 0.157531
upperback 0.355329 0.124269 -0.75674
thorax -1.86221 0.0577427 -0.871526
lowerneck -12.0558 0.23544 -1.12759
upperneck 39.6114 0.704834 -0.628423
head 16.1505 -0.0546474 0.019141
rclavicle -8.24956e-015 -1.59028e-015
rhumerus -14.2851 31.5235 -57.7213
rradius 103.043
rwrist -28.0768
rhand -4.60441 -42.5967
rfingers 7.12502
rthumb 21.1735 -71.4605
lclavicle -8.24956e-015 -1.59028e-015
lhumerus -3.55809 -26.4436 54.4372
lradius 92.0384
lwrist 53.8367
lhand -21.637 -27.1003
lfingers 7.12502
lthumb 4.75926 2.82626
rfemur -58.3513 -0.483687 17.2854
rtibia 33.8459
rfoot 37.8862 -0.76391
rtoes 6.04538
lfemur -33.544 2.98482 -29.4173
ltibia 48.4701
lfoot -22.7399 7.1871
ltoes 14.0262
370
root 4.8128 16.4517 2.49858 9.68043 -13.7815 -1.63202
lowerback 4.14561 0.117724 0.0335029
upperback 0.324665 0.141856 -0.738141
thorax -1.98843 0.0672217 -0.784449
lowerneck -11.9153 0.258069 -1.09992
upperneck 39.4685 0.75458 -0.696087
head 16.0412 -0.0368849 -0.00658088
rclavicle 1.94809e-014 -1.43125e-014
rhumerus -14.8173 31.8798 -58.0665
rradius 102.684
rwrist -27.3941
rhand -5.81642 -39.7611
rfingers 7.12502
rthumb 20.0088 -68.7509
lclavicle 1.94809e-014 -1.43125e-014
lhumerus -4.14168 -26.6752 54.894
lradius 91.9012
lwrist 53.5335
lhand -21.3391 -27.2825
lfingers 7.12502
lthumb 5.04692 2.63738
rfemur -58.3539 -0.302094 17.0551
rtibia 33.8103
rfoot 37.9296 -0.797799
rtoes 6.30211
lfemur -33.5847 3.0152 -29.472
ltibia 48.4657
lfoot -22.7359 7.22104
ltoes 14.0545
371
root 4.81315 16.455 2.49626 9.75771 -13.8715 -1.69333
lowerback 4.23818 0.137282 0.0491952
upperback 0.313714 0.168937 -0.705434
thorax -2.05121 0.080569 -0.761615
lowerneck -11.9371 0.268081 -1.01644
upperneck 39.468 0.801772 -0.839532
head 16.0479 -0.0244149 -0.0762595
rclavicle 3.3197e-014 -1.98785e-014
rhumerus -15.2974 32.0444 -58.3816
rradius 102.775
rwrist -27.7311
rhand -6.52712 -40.4642
rfingers 7.12502
rthumb 19.3256 -69.5239
lclavicle 3.3197e-014 -1.98785e-014
lhumerus -4.68413 -26.8761 55.3077
lradius 91.8067
lwrist 53.378
lhand -21.47 -26.8299
lfingers 7.12502
lthumb 4.92051 3.09293
rfemur -58.379 -0.0981489 16.9615
rtibia 33.7473
rfoot 37.9231 -0.770542
rtoes 6.74411
lfemur -33.6653 3.04426 -29.4125
ltibia 48.4826
lfoot -22.7328 7.24618
ltoes 14.7982
